<svg width="46" height="46" viewBox="0 0 46 46" fill="none" xmlns="http://www.w3.org/2000/svg">
<path d="M6.70834 8.625H11.0168C11.7125 8.625 12.0604 8.625 12.3223 8.81376C12.5842 9.00252 12.6942 9.33253 12.9142 9.99254L14.375 14.375" stroke="#222222" stroke-linecap="round"/>
<path d="M33.5417 33.5416H15.2332C13.967 33.5416 13.3339 33.5416 13.0345 33.1263C12.7352 32.711 12.9354 32.1104 13.3358 30.9092L13.4633 30.5267C13.9033 29.2067 14.1233 28.5467 14.6471 28.1691C15.1709 27.7916 15.8666 27.7916 17.258 27.7916H27.7917" stroke="#222222" stroke-linecap="round" stroke-linejoin="round"/>
<path d="M29.3037 27.7917H18.9292C17.65 27.7917 17.0104 27.7917 16.5095 27.4613C16.0085 27.131 15.7566 26.5431 15.2527 25.3673L12.3338 18.5568C11.5243 16.6679 11.1196 15.7235 11.5642 15.0493C12.0088 14.375 13.0363 14.375 15.0913 14.375H34.1221C36.4212 14.375 37.5707 14.375 38.0043 15.1221C38.4378 15.8692 37.8675 16.8673 36.7268 18.8634L32.7767 25.7762C32.2147 26.7596 31.9338 27.2513 31.4682 27.5215C31.0026 27.7917 30.4363 27.7917 29.3037 27.7917Z" stroke="black" stroke-linecap="round"/>
<ellipse cx="32.5833" cy="38.3333" rx="1.91667" ry="1.91667" fill="#222222"/>
<ellipse cx="17.25" cy="38.3333" rx="1.91667" ry="1.91667" fill="#222222"/>
</svg>
